<?xml version="1.0" encoding="UTF-8" standalone="no"?>
<!DOCTYPE svg PUBLIC "-//W3C//DTD SVG 1.1//EN" "http://www.w3.org/Graphics/SVG/1.1/DTD/svg11.dtd">
<svg version="1.1" xmlns="http://www.w3.org/2000/svg" xmlns:xlink="http://www.w3.org/1999/xlink" preserveAspectRatio="xMidYMid meet" viewBox="0 0 640 640" width="44" height="44"><defs><path d="M318.54 0C193.3 0 91.77 101.53 91.77 226.78C91.77 251.26 95.7 274.83 102.88 296.92C102.88 296.92 102.88 296.92 102.88 296.92C102.88 296.92 121.97 382.58 317.12 638.1C428.85 491.78 482.84 401.22 508.59 350.49C531.78 314.9 545.32 272.43 545.32 226.78C545.32 101.53 443.79 0 318.54 0ZM172.4 229.29C172.4 149.98 236.71 85.67 316.03 85.67C395.35 85.67 459.66 149.98 459.66 229.29C459.65 308.62 395.35 372.92 316.03 372.92C236.71 372.92 172.4 308.62 172.4 229.29Z" id="agG8OAILv"></path><mask id="maskc1krqAgXF0" x="89.77" y="-2" width="457.55" height="642.1" maskUnits="userSpaceOnUse"><rect x="89.77" y="-2" width="457.55" height="642.1" fill="white"></rect><use xlink:href="#agG8OAILv" opacity="1" fill="black"></use></mask><path d="M318.55 638.08C318.06 638.73 317.59 639.34 317.09 640C317.28 640 318.25 640 320 640C319.36 639.15 318.87 638.52 318.55 638.08Z" id="d1uoPOGyA1"></path><path d="M461.59 228.5C461.59 306.87 396.84 370.5 317.09 370.5C237.34 370.5 172.59 306.87 172.59 228.5C172.59 150.13 237.34 86.5 317.09 86.5C396.84 86.5 461.59 150.13 461.59 228.5Z" id="b1PuEK6l9W"></path><mask id="maski5R4AvrZIo" x="170.59" y="84.5" width="293" height="288" maskUnits="userSpaceOnUse"><rect x="170.59" y="84.5" width="293" height="288" fill="white"></rect><use xlink:href="#b1PuEK6l9W" opacity="1" fill="black"></use></mask><path d="M426.09 228.5C426.09 289.21 377.25 338.5 317.09 338.5C256.93 338.5 208.09 289.21 208.09 228.5C208.09 167.79 256.93 118.5 317.09 118.5C377.25 118.5 426.09 167.79 426.09 228.5Z" id="f3WMUTyHJ"></path><mask id="maskc2vLlqpDfV" x="206.09" y="116.5" width="222" height="224" maskUnits="userSpaceOnUse"><rect x="206.09" y="116.5" width="222" height="224" fill="white"></rect><use xlink:href="#f3WMUTyHJ" opacity="1" fill="black"></use></mask></defs><g><g><g><g></g><use xlink:href="#agG8OAILv" opacity="1" fill="#fff000" fill-opacity="1"></use><g mask="url(#maskc1krqAgXF0)"><use xlink:href="#agG8OAILv" opacity="1" fill-opacity="0" stroke="#847f7f" stroke-width="2" stroke-opacity="0.71"></use></g><g></g></g><g><use xlink:href="#d1uoPOGyA1" opacity="1" fill="#d7d4d3" fill-opacity="1"></use><g><use xlink:href="#d1uoPOGyA1" opacity="1" fill-opacity="0" stroke="#000000" stroke-width="1" stroke-opacity="0"></use></g></g><g><use xlink:href="#b1PuEK6l9W" opacity="1" fill="#ffffff" fill-opacity="1"></use><g mask="url(#maski5R4AvrZIo)"><use xlink:href="#b1PuEK6l9W" opacity="1" fill-opacity="0" stroke="#847f7f" stroke-width="2" stroke-opacity="0.71"></use></g></g><g><use xlink:href="#f3WMUTyHJ" opacity="1" fill="#fff000" fill-opacity="1"></use><g mask="url(#maskc2vLlqpDfV)"><use xlink:href="#f3WMUTyHJ" opacity="1" fill-opacity="0" stroke="#847f7f" stroke-width="2" stroke-opacity="0.71"></use></g></g></g></g></svg>