<?xml version="1.0" encoding="UTF-8" standalone="no"?>
<!DOCTYPE svg PUBLIC "-//W3C//DTD SVG 1.1//EN" "http://www.w3.org/Graphics/SVG/1.1/DTD/svg11.dtd">
<svg version="1.1" xmlns="http://www.w3.org/2000/svg" xmlns:xlink="http://www.w3.org/1999/xlink" preserveAspectRatio="xMidYMid meet" viewBox="0 0 640 640" width="20" height="20"><defs><path d="M320 0C194.76 0 93.23 101.53 93.23 226.78C93.23 251.26 97.16 274.83 104.35 296.92C104.35 296.92 104.35 296.92 104.35 296.92C104.35 296.92 123.43 382.58 318.58 638.1C430.32 491.78 484.3 401.22 510.05 350.49C533.24 314.9 546.78 272.43 546.78 226.78C546.78 101.53 445.25 0 320 0ZM173.86 229.29C173.86 149.98 238.17 85.67 317.49 85.67C396.81 85.67 461.12 149.98 461.12 229.29C461.11 308.62 396.81 372.92 317.49 372.92C238.17 372.92 173.86 308.62 173.86 229.29Z" id="b12HGOh6ef"></path><path d="M318.55 638.08C318.06 638.73 317.59 639.34 317.09 640C317.28 640 318.25 640 320 640C319.36 639.15 318.87 638.52 318.55 638.08Z" id="c3wlvfrWY4"></path></defs><g><g><g><use xlink:href="#b12HGOh6ef" opacity="1" fill="#2d99da" fill-opacity="1"></use><g><use xlink:href="#b12HGOh6ef" opacity="1" fill-opacity="0" stroke="#000000" stroke-width="1" stroke-opacity="0"></use></g></g><g><use xlink:href="#c3wlvfrWY4" opacity="1" fill="#d7d4d3" fill-opacity="1"></use><g><use xlink:href="#c3wlvfrWY4" opacity="1" fill-opacity="0" stroke="#000000" stroke-width="1" stroke-opacity="0"></use></g></g></g></g></svg>