<?xml version="1.0" encoding="UTF-8" standalone="no"?>
<!DOCTYPE svg PUBLIC "-//W3C//DTD SVG 1.1//EN" "http://www.w3.org/Graphics/SVG/1.1/DTD/svg11.dtd">
<svg version="1.1" xmlns="http://www.w3.org/2000/svg" xmlns:xlink="http://www.w3.org/1999/xlink" preserveAspectRatio="xMidYMid meet" viewBox="0 0 640 640" width="30" height="30"><defs><path d="M546.53 324.91C546.53 446.55 445.03 545.3 320 545.3C194.97 545.3 93.46 446.55 93.46 324.91C93.46 203.28 194.97 104.52 320 104.52C445.03 104.52 546.53 203.28 546.53 324.91Z" id="a26WNinb0h"></path><path d="M331.6 31.07C337.71 31.07 342.66 36.02 342.66 42.12C342.66 157.45 342.66 492.39 342.66 607.72C342.66 613.82 337.71 618.77 331.6 618.77C324.75 618.77 315.26 618.77 308.41 618.77C302.3 618.77 297.35 613.82 297.35 607.72C297.35 492.39 297.35 157.45 297.35 42.12C297.35 36.02 302.3 31.07 308.41 31.07C315.26 31.07 324.75 31.07 331.6 31.07Z" id="d2NJ8v3Ms"></path><path d="M612.93 302.87C617.97 302.87 622.05 306.95 622.05 311.99C622.05 318.98 622.05 330.84 622.05 337.83C622.05 342.87 617.97 346.95 612.93 346.95C493.94 346.95 146.06 346.95 27.07 346.95C22.03 346.95 17.95 342.87 17.95 337.83C17.95 330.84 17.95 318.98 17.95 311.99C17.95 306.95 22.03 302.87 27.07 302.87C146.06 302.87 493.94 302.87 612.93 302.87Z" id="a7CvzBH9f"></path><path d="M508.78 324.92C508.78 426.28 424.19 508.58 320 508.58C215.81 508.58 131.22 426.28 131.22 324.92C131.22 223.55 215.81 141.26 320 141.26C424.19 141.26 508.78 223.55 508.78 324.92Z" id="agIH9bv4c"></path><path d="M455.92 324.91C455.92 397.89 395.01 457.15 320 457.15C244.98 457.15 184.07 397.89 184.07 324.91C184.07 251.93 244.98 192.68 320 192.68C395.01 192.68 455.92 251.93 455.92 324.91Z" id="aH4Wq3tEg"></path></defs><g><g><g><use xlink:href="#a26WNinb0h" opacity="1" fill="#000000" fill-opacity="1"></use></g><g><use xlink:href="#d2NJ8v3Ms" opacity="1" fill="#000000" fill-opacity="1"></use></g><g><use xlink:href="#a7CvzBH9f" opacity="1" fill="#000000" fill-opacity="1"></use></g><g><use xlink:href="#agIH9bv4c" opacity="1" fill="#ffffff" fill-opacity="1"></use></g><g><use xlink:href="#aH4Wq3tEg" opacity="1" fill="#000000" fill-opacity="1"></use></g></g></g></svg>