<?xml version="1.0" encoding="UTF-8" standalone="no"?>
<!DOCTYPE svg PUBLIC "-//W3C//DTD SVG 1.1//EN" "http://www.w3.org/Graphics/SVG/1.1/DTD/svg11.dtd">
<svg version="1.1" xmlns="http://www.w3.org/2000/svg" xmlns:xlink="http://www.w3.org/1999/xlink" preserveAspectRatio="xMidYMid meet" viewBox="0 0 640 640" width="44" height="44"><defs><path d="M320 0C194.76 0 93.23 101.53 93.23 226.78C93.23 251.26 97.16 274.83 104.35 296.92C104.35 296.92 104.35 296.92 104.35 296.92C104.35 296.92 123.43 382.58 318.58 638.1C430.32 491.78 484.3 401.22 510.05 350.49C533.24 314.9 546.78 272.43 546.78 226.78C546.78 101.53 445.25 0 320 0ZM173.86 229.29C173.86 149.98 238.17 85.67 317.49 85.67C396.81 85.67 461.12 149.98 461.12 229.29C461.11 308.62 396.81 372.92 317.49 372.92C238.17 372.92 173.86 308.62 173.86 229.29Z" id="b3YbvLLLi"></path><path d="M318.55 638.08C318.06 638.73 317.59 639.34 317.09 640C317.28 640 318.25 640 320 640C319.36 639.15 318.87 638.52 318.55 638.08Z" id="dodzW5gBi"></path><path d="M459.5 229.66C459.5 308.51 395.67 372.52 317.06 372.52C238.45 372.52 174.62 308.51 174.62 229.66C174.62 150.82 238.45 86.81 317.06 86.81C395.67 86.81 459.5 150.82 459.5 229.66Z" id="fsww9ks82"></path><path d="M459.82 228.66C459.82 307.51 395.99 371.52 317.38 371.52C238.77 371.52 174.94 307.51 174.94 228.66C174.94 149.82 238.77 85.81 317.38 85.81C395.99 85.81 459.82 149.82 459.82 228.66Z" id="c1oOYvgCYl"></path><path d="M356.46 241.72L394.36 184.75L318.54 184.75L242.73 184.75L280.63 241.72L318.54 298.69L356.46 241.72Z" id="bcb7GJgGY"></path></defs><g><g><g><use xlink:href="#b3YbvLLLi" opacity="1" fill="#008dff" fill-opacity="1"></use><g><use xlink:href="#b3YbvLLLi" opacity="1" fill-opacity="0" stroke="#000000" stroke-width="1" stroke-opacity="1"></use></g></g><g><use xlink:href="#dodzW5gBi" opacity="1" fill="#000000" fill-opacity="1"></use><g><use xlink:href="#dodzW5gBi" opacity="1" fill-opacity="0" stroke="#000000" stroke-width="1" stroke-opacity="0"></use></g></g><g><use xlink:href="#fsww9ks82" opacity="1" fill="#ffffff" fill-opacity="1"></use></g><g><use xlink:href="#c1oOYvgCYl" opacity="1" fill="#ffffff" fill-opacity="1"></use></g><g><use xlink:href="#bcb7GJgGY" opacity="1" fill="#ff8d00" fill-opacity="1"></use><g><use xlink:href="#bcb7GJgGY" opacity="1" fill-opacity="0" stroke="#000000" stroke-width="1" stroke-opacity="1"></use></g></g></g></g></svg>